<svg width="16" height="16" xmlns="http://www.w3.org/2000/svg" xmlns:xlink="http://www.w3.org/1999/xlink"><defs><path d="M2.857 6.14v5.496c0 .251.192.455.429.455h9.428c.237 0 .429-.204.429-.455V6.125L8.696 9.179c-.423.284-.969.284-1.392 0l-4.447-3.04zM3.286 3h9.428C13.424 3 14 3.61 14 4.364v7.272C14 12.39 13.424 13 12.714 13H3.286C2.576 13 2 12.39 2 11.636V4.364C2 3.61 2.576 3 3.286 3zm0 .91c-.237 0-.429.203-.429.454v.44c0 .152.074.296.201.383l4.714 3.225a.398.398 0 00.456 0l4.714-3.239a.448.448 0 00.2-.383v-.426c0-.251-.191-.455-.428-.455H3.286z" id="a"/></defs><use fill="#FFF" xlink:href="#a" fill-rule="evenodd"/></svg>